<svg width="210" height="210" viewBox="0 0 210 210" fill="none" xmlns="http://www.w3.org/2000/svg">
<circle cx="105" cy="105" r="105" fill="#5527DD"/>
<path fill-rule="evenodd" clip-rule="evenodd" d="M153.471 52.4759C157.416 54.1105 161 56.5063 164.019 59.5265C167.039 62.5453 169.435 66.1295 171.07 70.0744C172.704 74.0194 173.545 78.2477 173.545 82.5179C173.545 86.7881 172.704 91.0164 171.07 94.9614C169.435 98.9063 167.039 102.491 164.019 105.509L118.92 150.608C114.972 154.556 108.57 154.556 104.622 150.608L59.5233 105.509C53.4257 99.4116 50 91.1413 50 82.5179C50 73.8945 53.4257 65.6242 59.5233 59.5265C65.621 53.4288 73.8913 50.0032 82.5147 50.0032C91.1382 50.0032 99.4084 53.4288 105.506 59.5265L111.771 65.7915L118.036 59.5265C121.055 56.5063 124.639 54.1105 128.584 52.4759C132.529 50.8413 136.757 50 141.028 50C145.298 50 149.526 50.8413 153.471 52.4759ZM94.7909 85.3541C90.1799 92.2695 86.7588 99.2269 86.7588 106.772C86.7588 117.888 93.1235 128.34 102.249 132.394L105.369 127.954C109.136 123.649 115.245 123.647 119.014 127.954L121.563 130.865C130.688 126.81 136.288 117.305 136.288 106.77C136.288 93.687 125.544 85.1517 125.544 85.1517C124.465 84.1293 123.567 84.5383 123.563 86.0098C123.563 86.0098 124.24 98.7404 117.547 98.7404C114.138 98.7404 114.077 95.493 113.989 90.7721C113.877 84.7769 113.721 76.4054 106.606 69.2911C103.803 66.8882 102.677 65.923 102.159 66.1806C100.947 66.7839 103.072 74.0967 94.7909 85.3541ZM124.337 74.5853C121.925 70.8644 117.247 68.7234 115.183 69.081C114.29 69.2351 114.556 69.529 115.244 70.2906C116.148 71.2912 117.782 73.0991 118.478 76.4584C119.706 82.3717 127.705 79.9607 124.337 74.5853Z" fill="#FF6665"/>
</svg>
