<svg width="75" height="75" viewBox="0 0 75 75" fill="none" xmlns="http://www.w3.org/2000/svg">
<circle cx="37.184" cy="37.0566" r="37.0566" fill="#56704E"/>
<path d="M47.4477 46.5345C47.6308 48.7341 46.8909 50.9976 45.2252 52.6881C43.5596 54.3786 41.3162 55.1428 39.1282 54.9781C38.9452 52.7785 39.6851 50.5151 41.3507 48.8245C43.0164 47.134 45.2597 46.3698 47.4477 46.5345Z" fill="#FFC83D"/>
<path d="M43.4845 43.478C41.3009 45.8271 38.1464 47.2354 34.7024 47.0772C31.2588 46.919 28.2453 45.2276 26.2836 42.6885C28.4672 40.3393 31.6217 38.9311 35.0657 39.0893C38.5094 39.2475 41.5229 40.9389 43.4845 43.478Z" fill="#FFC83D"/>
<path d="M25 35.9179C25.4561 30.4172 28.2148 25.1443 33.02 21.671C37.8251 18.1979 43.6725 17.2501 49 18.57C48.5439 24.0707 45.7852 29.3436 40.98 32.8168C36.1749 36.2899 30.3275 37.2378 25 35.9179Z" fill="#FFC83D"/>
</svg>
